<svg id="Layer_1" enable-background="new 0 0 68 68" height="512" viewBox="0 0 68 68" width="512" xmlns="http://www.w3.org/2000/svg"><g id="_x32_3"><g><g><g><g><path d="m4.9708481 62.5569763v-23.2994461c0-1.1624565.942358-2.1048126 2.104816-2.1048126h31.4024849c1.1624565 0 2.1048164.9423561 2.1048164 2.1048126v23.2994461z" fill="#4d5d77"/></g></g><g><g><path d="m6.4580812 61.0692825v-21.8119392c0-.3406029.2770581-.6172981.6176624-.6172981h31.4024048c.3406067 0 .6176643.2766953.6176643.6172981v21.8119392z" fill="#fff"/></g></g><g><g><path d="m41.79496 62.3740044h-38.0361058v1.41465c0 1.0039787.8138855 1.8178673 1.8178637 1.8178673h34.4003792c1.0039787 0 1.8178635-.8138885 1.8178635-1.8178673v-1.41465z" fill="#6b7994"/></g></g><g><g><path d="m25.6929626 62.3730621v.5480003c0 .295372-.2397442.535141-.5351429.535141h-4.7606277c-.2954006 0-.5308571-.239769-.5308571-.535141v-.5480003z" fill="#4d5d77"/></g></g></g></g><g><g><g><g><g><g><path d="m21.772438 34.0058403c-.3039112 0-.5498333-.2459221-.5498333-.5498352v-26.4318309c0-.3039117.2459221-.5498338.5498333-.5498338s.5498333.2459221.5498333.5498338v26.4318314c0 .3039126-.245922.5498347-.5498333.5498347z" fill="#54607b"/></g></g></g><g><g><g><g><path d="m21.7719002 18.8692226c-.1218853 0-.2443104-.0402718-.3463306-.1234989l-2.8415222-2.3120918c-.1283302-.1041679-.2029667-.2609577-.2029667-.4263363v-5.153616c0-.3039122.2459221-.5498343.5498352-.5498343.3039112 0 .5498333.2459221.5498333.5498343v4.8921223l2.6385574 2.1472511c.2357197.1916904.2711563.5380211.0794678.7732029-.1084633.1336995-.2668629.2029667-.4268742.2029667z" fill="#54607b"/></g></g></g><g><g><g><path d="m14.6313858 34.0058403c-.3039122 0-.5498343-.2459221-.5498343-.5498352v-12.7412968l-4.9694433-4.9694433c-.2147789-.2147789-.2147789-.5627203 0-.7774992l2.0779848-2.0779839v-4.8781623c0-.3039122.2459211-.5498338.5498333-.5498338s.5498333.2459216.5498333.5498338v5.1058273c0 .1460495-.0579901.285656-.1610832.3887501l-1.8503189 1.8503189 4.7417774 4.7417774c.1030941.1030941.1610842.2427006.1610842.3887501v12.9689617c0 .3039131-.2459221.5498352-.5498333.5498352z" fill="#54607b"/></g></g></g><g><g><g><path d="m9.5008583 15.9063492c-.1406803 0-.2813606-.0536947-.3887501-.1610842l-1.8363581-1.8363581c-.1030936-.1030941-.1610842-.2426996-.1610842-.3887491v-3.822525c0-.3039122.2459221-.5498333.5498338-.5498333.3039122 0 .5498338.2459211.5498338.5498333v3.5948591l1.6752739 1.6752739c.2147789.2147789.2147789.5627203 0 .7774992-.1073894.1073895-.2480688.1610842-.3887491.1610842z" fill="#54607b"/></g></g></g></g><g><g><g><g><path d="m21.7638474 18.8692226c-.1600113 0-.3184109-.0692673-.4268742-.2029667-.1916885-.2351818-.15625-.5815125.0794697-.7732029l2.6390934-2.1472511v-4.8921223c0-.3039122.2459221-.5498343.5498333-.5498343s.5498333.2459221.5498333.5498343v5.153616c0 .1653786-.0746346.3221684-.2029648.4263363l-2.8420601 2.3120918c-.1020203.0832272-.2244434.1234989-.3463306.1234989z" fill="#54607b"/></g></g></g><g><g><g><path d="m28.9043617 34.0058403c-.3039112 0-.5498333-.2459221-.5498333-.5498352v-12.9689617c0-.1460495.057991-.285656.1610851-.3887501l4.7417755-4.7417774-1.850317-1.8503189c-.1030941-.1030941-.1610851-.2427006-.1610851-.3887501v-5.1058273c0-.3039122.2459221-.5498338.5498352-.5498338.3039093 0 .5498314.2459216.5498314.5498338v4.8781624l2.0779877 2.0779839c.2147751.2147789.2147751.5627203 0 .7774992l-4.9694443 4.9694433v12.7412968c0 .303913-.2459221.5498351-.5498352.5498351z" fill="#54607b"/></g></g></g><g><g><g><path d="m34.0348892 15.9063492c-.1406784 0-.2813606-.0536947-.3887482-.1610842-.2147789-.2147789-.2147789-.5627203 0-.7774992l1.6752739-1.6752739v-3.5948591c0-.3039122.2459221-.5498333.5498314-.5498333.3039131 0 .5498352.2459211.5498352.5498333v3.822525c0 .1460495-.057991.285655-.1610832.3887491l-1.8363571 1.8363581c-.1073914.1073895-.2480698.1610842-.388752.1610842z" fill="#54607b"/></g></g></g></g></g><g><g><g><g><path d="m9.76507 10.3819046c0 1.160141-.9402285 2.1058378-2.100369 2.1058378s-2.1058717-.9456968-2.1058717-2.1058378.9457312-2.1003351 2.1058717-2.1003351 2.100369.9401941 2.100369 2.1003351z" fill="#fec400"/></g></g><g><g><path d="m13.8338175 6.7695274c0 1.1601405-.9456968 2.1058378-2.1058378 2.1058378-1.1601744 0-2.1003685-.9456973-2.1003685-2.1058378 0-1.1602082.9401941-2.1004024 2.1003685-2.1004024 1.160141.0000001 2.1058378.9401942 2.1058378 2.1004024z" fill="#fec400"/></g></g><g><g><path d="m33.9119606 6.7695274c0 1.1601405-.9457283 2.1058378-2.1058693 2.1058378s-2.1003685-.9456973-2.1003685-2.1058378c0-1.1602082.9402275-2.1004024 2.1003685-2.1004024s2.1058693.9401942 2.1058693 2.1004024z" fill="#fec400"/></g></g><g><g><path d="m35.8693695 12.4877424c-1.1601753 0-2.1003685-.9456968-2.1003685-2.1058378s.9401932-2.1003351 2.1003685-2.1003351c1.160141 0 2.1058388.9401941 2.1058388 2.1003351s-.9456978 2.1058378-2.1058388 2.1058378z" fill="#fec400"/></g></g><g><g><path d="m24.4172363 4.9275308c0 1.4570727-1.1876583 2.644732-2.6446972 2.644732-1.4570732 0-2.6446991-1.1876593-2.6446991-2.644732 0-1.457005 1.1876259-2.6446645 2.6446991-2.6446645 1.4570389-.0000001 2.6446972 1.1876594 2.6446972 2.6446645z" fill="#ff4f5a"/></g></g></g></g></g><g><g><g><g><path d="m2 43.6115036c0 3.6730347 2.8589711 6.6478767 6.3847141 6.6478767h24.6565418c4.6908684 0 8.4927483-3.9606323 8.4927483-8.8473625 0-4.8833008-3.8018799-8.8473587-8.4927483-8.8473587-.2795067 0-.5589905.013958-.8317528.0420532.0437775-.3789024.0639801-.7647381.0639801-1.1541729 0-5.8233566-4.5326099-10.5452156-10.1225872-10.5452156-4.8087444 0-8.8328638 3.4940319-9.863306 8.1772633h-.0673532c-3.5257225 0-6.3846936 2.9783554-6.3846936 6.647789 0 .585907.0707035 1.1506615.2087812 1.690918-2.3673353.9717445-4.0443244 3.374813-4.0443244 6.1882095z" fill="#deebfe"/></g></g></g><g><g><g><g><g><path d="m31.4445705 35.3804512c-.0089417-.2885246-.2191772-.5368576-.5077019-.5904808l-.5703163-.111824c-.1968174-.0402985-.3690357-.1677437-.4495487-.3533936-.0245991-.0648689-.0581532-.1319237-.0894547-.1944962-.0872288-.1856537-.0760479-.4003525.0268383-.5793419l.2907486-.496563c.1453667-.2527008.0984077-.5747528-.1140671-.7715416l-1.3061504-1.2189636c-.2102356-.1989746-.5345249-.2236557-.7760754-.0603905l-.4786243.3221588c-.1677418.1118279-.3824425.1408768-.5703182.0670528-.0670929-.0245724-.136425-.05373-.205759-.0783024-.1923523-.0670528-.3354816-.2303162-.3891563-.424921l-.1453819-.5569534c-.0738087-.2817535-.3354816-.4740658-.6284695-.4652195l-1.7847614.0626831c-.2885227.008955-.5345383.2191792-.588213.5032234l-.1118279.5725708c-.0402565.1990833-.1722183.369009-.3578568.4494934-.0693321.0291576-.1341877.0582066-.2012806.0894413-.18116.0872555-.395874.073822-.5725555-.0267563l-.496521-.2885246c-.2527313-.1453533-.5725555-.0962105-.7716122.1140118l-1.2189083 1.306221c-.1990566.2102203-.2236557.5344543-.0603924.7760201l.3243027.4809456c.1140671.1654472.1409035.380146.0670948.5679817-.0268383.0671616-.0559139.1386948-.080513.2080383-.0626297.1923141-.225893.3332977-.4227104.3869209l-.5546608.1453514c-.2840462.0738258-.4763851.3377762-.4652061.6284828l.0626163 1.7847633c.008955.2907066.2191906.5390434.5077019.5926628l.5636139.1073494c.1990433.0402985.3712616.1677437.4495487.357872.0290623.0648689.0603771.1320305.0939312.2012672.0872288.1811714.0738106.395874-.0313148.5725708l-.2885094.4965591c-.1453819.2527046-.0961704.5747566.1140652.771656l1.3083763 1.218853c.2124748.1990814.5345383.2236557.7783146.0603905l.4786243-.3220482c.1677418-.1118279.3824558-.1408768.568079-.0671654.0693321.0291595.1364403.05373.2080116.0783043.1945782.0671616.3332424.230423.3869171.4249191l.1453686.5569534c.0715714.2817535.3354816.4741745.6262436.4652214l1.7870007-.0626831c.2929878-.0111427.5367641-.2191811.5904522-.5075951l.1118279-.5680923c.0402565-.1968994.1677418-.3691177.3533649-.4473076.0693321-.0313416.1364403-.0605011.2012959-.0917358.18116-.091732.4003372-.0783005.5747948.0268669l.4965076.2885246c.2549686.1453514.5747948.0960999.7716122-.1141205l1.2189217-1.308403c.1990547-.2147026.225893-.5344582.0626163-.7783165l-.3265285-.4830208c-.1118279-.1655579-.1409035-.3757782-.0648689-.5637245.0268383-.0692368.0514507-.1363983.0715714-.2012672.0670948-.1944962.2303715-.3331871.4271889-.3869171l.5591373-.1498337c.2818069-.073822.4741478-.3376656.4651928-.6240044zm-6.5732212 4.229351c-1.7154293 0-3.104332-1.3911819-3.104332-3.1044159 0-1.7131195 1.3889027-3.1043015 3.104332-3.1043015 1.7132034 0 3.104332 1.3911819 3.104332 3.1043015 0 1.713234-1.3911285 3.1044159-3.104332 3.1044159z" fill="#ff4f5a"/></g></g></g></g><g><g><g><g><path d="m24.8713493 32.6921158c-2.1068249 0-3.8133125 1.706459-3.8133125 3.8132706s1.7064877 3.8133812 3.8133125 3.8133812 3.8133125-1.7065697 3.8133125-3.8133812-1.7064876-3.8132706-3.8133125-3.8132706zm0 6.9176864c-1.7154293 0-3.104332-1.3911819-3.104332-3.1044159 0-1.7131195 1.3889027-3.1043015 3.104332-3.1043015 1.7132034 0 3.104332 1.3911819 3.104332 3.1043015 0 1.713234-1.3911285 3.1044159-3.104332 3.1044159z" fill="#f73f4b"/></g></g></g></g></g><g><g><g><g><g><path d="m18.8608818 42.9681931c.0424881-.2210541-.0750484-.445919-.2854137-.5360069l-.4148273-.182518c-.142868-.0642853-.2521286-.1906738-.2816715-.3456841-.0076351-.0535583-.0217094-.1103096-.0348339-.163269-.0346527-.1561546.0105324-.3176003.1193924-.4362106l.3060513-.3281441c.1537762-.1674385.1730671-.4204941.0450211-.6065254l-.785553-1.1506042c-.125967-.1873055-.3684902-.2614861-.5801678-.1785316l-.4192047.1633492c-.1467323.0564308-.315052.0418549-.4453888-.0464134-.0468502-.0301552-.0946217-.0641861-.1431761-.0947266-.1348991-.0838814-.215909-.2325516-.2235022-.3897896l-.0154657-.4486008c-.0080242-.2269859-.1742659-.4180145-.3987007-.4613342l-1.3686649-.2572138c-.221056-.0424767-.4441538.0754433-.5335188.2823944l-.1829023.4165421c-.064641.1445961-.1940756.2513428-.3490696.2808647-.0577345.0103416-.1120424.0213623-.1684275.0336647-.1527443.0354424-.313817-.0114594-.4310646-.1181717l-.3284931-.3043518c-.1674614-.1537704-.419199-.1710167-.6065674-.0450745l-1.1505728.785614c-.1873684.125946-.2614765.3684387-.178524.5801277l.1645851.4213371c.0585232.1453705.042264.3133125-.0459843.4436188-.0318937.0465164-.0662374.095974-.0967999.1445351-.0805073.1356239-.2288141.2150002-.3877258.2221756l-.4468507.0158348c-.2287321.0076447-.4201689.1756172-.4613266.398716l-.2572651 1.3686523c-.0428505.2227173.0746851.4475822.2850409.5376701l.4104929.1779633c.1445589.0646667.2538214.1910553.2809057.3490906.0110312.0543213.0233831.1107712.0370846.1691856.0354176.1527481-.0114717.3138123-.1216431.430294l-.3043489.3285256c-.1537857.1674385-.1713619.4208794-.0450392.6066093l.7872648 1.1509018c.1276531.1877708.3685007.2614899.581872.1789131l.4191856-.1632652c.1467323-.0564308.3150625-.041851.4437037.045948.0477705.0340309.0946321.0641899.1448908.0951118.1365728.084343.2141857.232254.2217979.3894081l.0154552.448597c.006321.2266045.1742477.4180946.3970079.4609566l1.370368.2575951c.2248259.0415764.4458466-.0750656.5359688-.2853355l.1821375-.4131355c.0642672-.1429367.1906872-.2521896.3452797-.2799721.0581064-.012001.1141472-.0227242.168829-.035408.1535091-.0388451.3179779.0088196.4327497.1186371l.3284817.3043518c.1691647.1541519.4209213.1713181.6065865.0449905l1.1509571-.7872734c.1881332-.1293526.2631798-.3680573.1806087-.5814934l-.1659241-.4232941c-.0568008-.1450729-.0430107-.3099899.0469494-.4399986.0322495-.0480957.0624485-.0949898.0888405-.1409111.0842762-.1365204.2322025-.2141533.3911324-.2214088l.4510231-.0184784c.2270279-.0080261.4184456-.1759148.4605503-.3953094zm-5.7238474 2.0949859c-1.3052044-.2930603-2.1242981-1.5888367-1.8316116-2.8923683.2926683-1.3034477 1.5870981-2.1246643 2.8923016-1.831604 1.3035107.2926826 2.1242971 1.5888367 1.8316298 2.8922844-.2926866 1.3035316-1.5888091 2.1243706-2.8923198 1.8316879z" fill="#fec400"/></g></g></g></g><g><g><g><g><path d="m14.3188438 39.7997818c-1.6030025-.3599281-3.1929331.6469154-3.5528584 2.2499084-.3599253 1.6029892.6469278 3.1929893 2.2499294 3.5529175 1.6030016.3599243 3.1929512-.6470032 3.5528755-2.2499924.3599264-1.602993-.6469449-3.1929092-2.2499465-3.5528335zm-1.1818094 5.2633972c-1.3052044-.2930603-2.1242981-1.5888367-1.8316116-2.8923683.2926683-1.3034477 1.5870981-2.1246643 2.8923016-1.831604 1.3035107.2926826 2.1242971 1.5888367 1.8316298 2.8922844-.2926866 1.3035316-1.5888091 2.1243706-2.8923198 1.8316879z" fill="#ffab00"/></g></g></g></g></g></g></g><g><g><g><g><g><path d="m43.230381 65.5123672.1989708-17.6852378 12.5585632-.4566765-1.2421417 18.2714691z" fill="#18293d"/></g></g><g><g><path d="m50.5427399 65.594635-.8307457-18.2947884 11.9176979.7320519-.1989708 17.6852341z" fill="#253858"/></g></g></g><g><g><g><path d="m38.5125084 40.7640839 3.8933258 1.1576957 4.3036232-9.8535804-5.2290916-1.9704056z" fill="#feb69e"/></g></g><g><g><path d="m48.9342499 23.3322124s.3999481 12.5280056.4649773 12.6512089c-.0437584.0099983-1.0140724-.3668785-2.3125458-.8900375-.2440529-.1007385-.5076332-.2062378-.7711868-.3118553-1.9096107-.7793884-4.2166443-1.7260017-5.3960419-2.2117233-.4363976-.1766434-.6398964-.664299-.4720802-1.0987339l2.3280792-6.2467995c.0036087-.0092068.0072517-.0183907.0109367-.0275536.483181-1.2015038 1.7334404-1.9165707 3.0283699-1.9012985z" fill="#56d9a3"/></g></g><g><g><g><path d="m62.1437836 25.7363243-.292202 25.9716606c-.0200729 1.7841873-18.4836273 1.576458-18.4635544-.2077293l.2682762-23.845562c.0272255-2.4197292 2.0108719-4.3592377 4.4305992-4.3320141l11.8270454.1330624c1.2455178.0140133 2.2438508 1.0350647 2.2298356 2.2805824z" fill="#56d9a3"/></g></g></g><g><g><path d="m44.2235184 28.47785-.0789948 7.0213833c-.0014153.1255417-.1082687.2299805-.2403831.2284927-.1254997-.0014114-.2300186-.1082268-.2286072-.2337685l.0789986-7.0213833c.0014839-.1320724.1083069-.2299786.2338066-.2285671.1321144.0014858.2366638.1017704.2351799.2338429z" fill="#37b37f"/></g></g><g><g><path d="m56.1908302 23.4138546-5.0559234 4.6123829-.968483-4.6801624z" fill="#feb69e"/></g></g><g><g><path d="m45.0383492 39.2407265v.0000038c.1113663 1.0948792.991703 1.9523621 2.0891342 2.0348969l3.5843544.2695656.4564972-5.5242691-1.3113251-1.3831253c-.4072418-.4295387-1.1215897-.298851-1.3503799.2470436v.0000038c-.1281929.3058701-.0593758.6588516.1743317.894165l.9804916.9872284-2.3381004-.0263023c-1.3553048-.0152512-2.4221612 1.1523589-2.2850037 2.5007896z" fill="#feb69e"/></g></g><g><g><path d="m58.4360847 33.7482529.4294243 4.1778259-7.7212372-1.922802-.4886703 5.6713028 11.0908585 3.5553665c1.9057007.5855827 3.8439941-.8094902 3.8937531-2.8025131l-.4168243-8.6930847" fill="#feb69e"/></g></g><g><g><path d="m57.617382 23.4104671.225502 11.7498722c.0234566.7031708 8.1805229.2175903 8.1570625-.4855042l-.6382599-6.1832256c-.2940826-2.8489227-2.6782951-5.024147-5.5421753-5.0563679z" fill="#56d9a3"/></g></g><g><g><g><path d="m58.442852 35.6215057c-.6383018-.0071831-1.0627251-.0847397-1.0738716-.4189644l-.4663239-7.8885651c-.0073776-.123724.0867653-.2296467.2104912-.2370243.1168785-.0223618.2296486.0867653.2370262.2104912l.4626999 7.8210011c.0707626.0235977.2719612.0670738.6885147.0647469.0008774.0000076.0008774.0000076.0017509.0000191.1236267.0013924.2224579.1024704.2219543.2252312-.0007437.1438026-.1463278.2237128-.2822417.2230643zm-.6254768-.4454879-.0000687.0061378c.0000191-.0017548.0000496-.0043831.0000687-.0061378z" fill="#37b37f"/></g></g></g><g><g><path d="m41.7350616 31.0902519-.0470695 4.1838112c-.2137527-.1549873-.4453812-.3191605-.6769524-.4834442l.0417175-3.7080441z" fill="#0f875a"/></g></g><g><g><path d="m38.0500069 31.2681541 2.1855125 12.2361946c.0632133.3357506.3509026.5773125.6933975.5811653l10.2445297.1152573c.4466896.0050278.7788048-.3933563.7017746-.8261528l-2.1855087-12.236105c-.0632591-.3357487-.3508644-.5847645-.6933136-.5886173l-10.2445297-.1152572c-.4392853-.004942-.7789345.4008083-.7018623.8335151z" fill="#222333"/></g></g><g><g><path d="m37.5041962 38.057518-.0405121 3.6010742c-.0051193.4549026.3595047.8278236.8144073.832943l.4667397.005249c1.2810173.0144157 2.3311691-1.0123711 2.3455811-2.2933846l.006855-.6094055c.0144119-1.2810135-1.0123711-2.3311653-2.2933884-2.3455772l-.4667931-.0052528c-.4548759-.0051194-.8277702.3594818-.8328895.8143539z" fill="#feb69e"/></g></g></g></g><g><g><g><path d="m49.421 16.76h7.388v5.814h-7.388z" fill="#feb69e" transform="matrix(.011 -1 1 .011 32.852 72.557)"/></g></g><g><g><path d="m50.249958 15.939991-.0609818 5.4200382s2.5551949 1.3577137 5.8040428.8959026l.0703201-6.250536z" fill="#f8957e"/></g></g><g><g><g><path d="m45.5005913 7.9751534-.1521263 4.1829123c-.0187454.5154991.1753883 1.0160112.5368309 1.3840456h.0000038l1.9463844-3.4871883.0188789-2.0582147z" fill="#0e0f16"/></g></g><g><g><path d="m45.8332634 12.4204969-.0324821 3.5413332c-.026062 2.8412933 2.2518768 5.1683426 5.1000404 5.1944656 2.8412514.026062 5.1684074-2.2587452 5.1944656-5.1000404l.032486-3.5413332c.0260582-2.8412104-2.2587891-5.1684051-5.1000443-5.1944661-1.4206467-.013031-2.7161827.5516872-3.6581001 1.4764848-.9350929.92486-1.5233345 2.2029505-1.5363655 3.6235561z" fill="#feb69e"/></g></g><g><g><ellipse cx="51.213" cy="14.018" fill="#0e0f16" rx=".77" ry=".48" transform="matrix(.009 -1 1 .009 36.726 65.101)"/></g></g><g><g><ellipse cx="47.796" cy="13.987" fill="#0e0f16" rx=".77" ry=".48" transform="matrix(.009 -1 1 .009 33.371 61.652)"/></g></g><g><g><path d="m51.512104 17.0810452c.0009537.028389.007946.0550938.0076828.0837555-.0098915 1.0783253-.8920517 1.9444485-1.9703369 1.9345589-1.0783234-.0098915-1.9444466-.8920498-1.9345551-1.9703751.0002632-.0286617.0077438-.0552349.0092163-.0836029z" fill="#fff"/></g></g><g><g><path d="m57.4912186 14.9043818c-.1197624.1496267 1.5837555-1.9984303 1.5802116-5.4074745-.0037422-3.5966554-.9889412-4.2103863-4.0070877-5.2357865 0 0-1.0427437-1.2587824-3.7512436-1.1460099s-8.016777 1.0676107-7.4388962 4.3497572c-2.1795425 1.5579991 4.1930847 5.6206994 10.4868355 2.2069392 0 0-.3905754 1.3224649 1.0476456 2.0581417l-.0320625 2.105731c-.0061378.4032812.3297005.7278767.7325401.7080097l.0114403-.9407568z" fill="#0e0f16"/></g></g><g><g><path d="m56.020649 13.1750479c.9463806.0134306 1.7053757.7882538 1.696682 1.7358189-.0086899.9474773-.7817726 1.7083349-1.7282333 1.7042284z" fill="#feb69e"/></g></g></g></g></g></g></svg>